<mxfile host="app.diagrams.net" agent="Mozilla/5.0 (Macintosh; Intel Mac OS X 10_15_7) AppleWebKit/605.1.15 (KHTML, like Gecko) Version/17.6 Safari/605.1.15" version="26.0.3">
  <diagram name="Page-1" id="8Btx2D27Im8ZOUqlHXfs">
    <mxGraphModel dx="2889" dy="2378" grid="1" gridSize="10" guides="1" tooltips="1" connect="1" arrows="1" fold="1" page="1" pageScale="1" pageWidth="827" pageHeight="1169" math="0" shadow="0">
      <root>
        <mxCell id="0" />
        <mxCell id="1" parent="0" />
        <mxCell id="GONTffMYKAudjiqWZch5-1" value="AWS Cloud" style="sketch=0;outlineConnect=0;gradientColor=none;html=1;whiteSpace=wrap;fontSize=12;fontStyle=0;shape=mxgraph.aws4.group;grIcon=mxgraph.aws4.group_aws_cloud;strokeColor=#AAB7B8;fillColor=none;verticalAlign=top;align=left;spacingLeft=30;fontColor=#AAB7B8;dashed=0;" vertex="1" parent="1">
          <mxGeometry x="-310" y="-40" width="1170" height="1640" as="geometry" />
        </mxCell>
        <mxCell id="GONTffMYKAudjiqWZch5-2" value="Region" style="sketch=0;outlineConnect=0;gradientColor=none;html=1;whiteSpace=wrap;fontSize=12;fontStyle=0;shape=mxgraph.aws4.group;grIcon=mxgraph.aws4.group_region;strokeColor=#879196;fillColor=none;verticalAlign=top;align=left;spacingLeft=30;fontColor=#879196;dashed=1;" vertex="1" parent="1">
          <mxGeometry x="-260" y="90" width="1060" height="1480" as="geometry" />
        </mxCell>
        <mxCell id="GONTffMYKAudjiqWZch5-3" value="ap-southeast-2" style="text;html=1;align=center;verticalAlign=middle;resizable=0;points=[];autosize=1;strokeColor=none;fillColor=none;" vertex="1" parent="1">
          <mxGeometry x="-190" y="90" width="100" height="30" as="geometry" />
        </mxCell>
        <mxCell id="GONTffMYKAudjiqWZch5-4" value="VPC" style="points=[[0,0],[0.25,0],[0.5,0],[0.75,0],[1,0],[1,0.25],[1,0.5],[1,0.75],[1,1],[0.75,1],[0.5,1],[0.25,1],[0,1],[0,0.75],[0,0.5],[0,0.25]];outlineConnect=0;gradientColor=none;html=1;whiteSpace=wrap;fontSize=12;fontStyle=0;container=0;pointerEvents=0;collapsible=0;recursiveResize=0;shape=mxgraph.aws4.group;grIcon=mxgraph.aws4.group_vpc2;strokeColor=#8C4FFF;fillColor=none;verticalAlign=top;align=left;spacingLeft=30;fontColor=#AAB7B8;dashed=0;" vertex="1" parent="1">
          <mxGeometry x="-210" y="360" width="970" height="1180" as="geometry" />
        </mxCell>
        <mxCell id="GONTffMYKAudjiqWZch5-5" value="Users" style="sketch=0;outlineConnect=0;fontColor=#232F3E;gradientColor=none;strokeColor=#232F3E;fillColor=#ffffff;dashed=0;verticalLabelPosition=bottom;verticalAlign=top;align=center;html=1;fontSize=12;fontStyle=0;aspect=fixed;shape=mxgraph.aws4.resourceIcon;resIcon=mxgraph.aws4.users;" vertex="1" parent="1">
          <mxGeometry x="245" y="-220" width="60" height="60" as="geometry" />
        </mxCell>
        <mxCell id="GONTffMYKAudjiqWZch5-6" value="" style="endArrow=classic;html=1;rounded=0;entryX=0.5;entryY=0;entryDx=0;entryDy=0;entryPerimeter=0;" edge="1" parent="1" target="GONTffMYKAudjiqWZch5-9">
          <mxGeometry width="50" height="50" relative="1" as="geometry">
            <mxPoint x="270" y="-130" as="sourcePoint" />
            <mxPoint x="160" y="340" as="targetPoint" />
          </mxGeometry>
        </mxCell>
        <mxCell id="GONTffMYKAudjiqWZch5-7" value="" style="html=1;verticalLabelPosition=bottom;align=center;labelBackgroundColor=#ffffff;verticalAlign=top;strokeWidth=2;strokeColor=#0080F0;shadow=0;dashed=0;shape=mxgraph.ios7.icons.user;" vertex="1" parent="1">
          <mxGeometry x="-39.5" y="-240" width="40" height="45" as="geometry" />
        </mxCell>
        <mxCell id="GONTffMYKAudjiqWZch5-8" value="DevOps Engineer" style="text;html=1;align=center;verticalAlign=middle;resizable=0;points=[];autosize=1;strokeColor=none;fillColor=none;" vertex="1" parent="1">
          <mxGeometry x="-70" y="-195" width="120" height="30" as="geometry" />
        </mxCell>
        <mxCell id="GONTffMYKAudjiqWZch5-9" value="" style="sketch=0;points=[[0,0,0],[0.25,0,0],[0.5,0,0],[0.75,0,0],[1,0,0],[0,1,0],[0.25,1,0],[0.5,1,0],[0.75,1,0],[1,1,0],[0,0.25,0],[0,0.5,0],[0,0.75,0],[1,0.25,0],[1,0.5,0],[1,0.75,0]];outlineConnect=0;fontColor=#232F3E;fillColor=#8C4FFF;strokeColor=#ffffff;dashed=0;verticalLabelPosition=bottom;verticalAlign=top;align=center;html=1;fontSize=12;fontStyle=0;aspect=fixed;shape=mxgraph.aws4.resourceIcon;resIcon=mxgraph.aws4.route_53;" vertex="1" parent="1">
          <mxGeometry x="240" width="60" height="60" as="geometry" />
        </mxCell>
        <mxCell id="GONTffMYKAudjiqWZch5-10" value="Route 53" style="text;html=1;align=center;verticalAlign=middle;resizable=0;points=[];autosize=1;strokeColor=none;fillColor=none;" vertex="1" parent="1">
          <mxGeometry x="230" y="60" width="70" height="30" as="geometry" />
        </mxCell>
        <mxCell id="GONTffMYKAudjiqWZch5-11" value="" style="endArrow=classic;html=1;rounded=0;exitX=0.446;exitY=1;exitDx=0;exitDy=0;exitPerimeter=0;entryX=0;entryY=0.5;entryDx=0;entryDy=0;entryPerimeter=0;" edge="1" parent="1" source="GONTffMYKAudjiqWZch5-8" target="GONTffMYKAudjiqWZch5-9">
          <mxGeometry width="50" height="50" relative="1" as="geometry">
            <mxPoint x="91" y="80" as="sourcePoint" />
            <mxPoint x="141" y="30" as="targetPoint" />
            <Array as="points">
              <mxPoint x="-16" y="30" />
            </Array>
          </mxGeometry>
        </mxCell>
        <mxCell id="GONTffMYKAudjiqWZch5-13" value="" style="sketch=0;outlineConnect=0;fontColor=#232F3E;gradientColor=none;fillColor=#7AA116;strokeColor=none;dashed=0;verticalLabelPosition=bottom;verticalAlign=top;align=center;html=1;fontSize=12;fontStyle=0;aspect=fixed;pointerEvents=1;shape=mxgraph.aws4.bucket;" vertex="1" parent="1">
          <mxGeometry x="398.31" y="178.25" width="48.08" height="50" as="geometry" />
        </mxCell>
        <mxCell id="GONTffMYKAudjiqWZch5-15" value="" style="sketch=0;outlineConnect=0;fontColor=#232F3E;gradientColor=none;fillColor=#7AA116;strokeColor=none;dashed=0;verticalLabelPosition=bottom;verticalAlign=top;align=center;html=1;fontSize=12;fontStyle=0;aspect=fixed;pointerEvents=1;shape=mxgraph.aws4.bucket;" vertex="1" parent="1">
          <mxGeometry x="653.0699999999999" y="175.75" width="50.48" height="52.5" as="geometry" />
        </mxCell>
        <mxCell id="GONTffMYKAudjiqWZch5-16" value="S3 for static&amp;nbsp;&lt;div&gt;resource hosting&lt;/div&gt;" style="text;html=1;align=center;verticalAlign=middle;resizable=0;points=[];autosize=1;strokeColor=none;fillColor=none;" vertex="1" parent="1">
          <mxGeometry x="623.31" y="227" width="110" height="40" as="geometry" />
        </mxCell>
        <mxCell id="GONTffMYKAudjiqWZch5-17" value="S3 for web application hosting" style="text;html=1;align=center;verticalAlign=middle;resizable=0;points=[];autosize=1;strokeColor=none;fillColor=none;" vertex="1" parent="1">
          <mxGeometry x="323.79" y="232" width="180" height="30" as="geometry" />
        </mxCell>
        <mxCell id="GONTffMYKAudjiqWZch5-18" value="" style="endArrow=classic;startArrow=classic;html=1;rounded=0;" edge="1" parent="1" source="GONTffMYKAudjiqWZch5-13" target="GONTffMYKAudjiqWZch5-15">
          <mxGeometry width="50" height="50" relative="1" as="geometry">
            <mxPoint x="78.31" y="232" as="sourcePoint" />
            <mxPoint x="128.31" y="182" as="targetPoint" />
          </mxGeometry>
        </mxCell>
        <mxCell id="GONTffMYKAudjiqWZch5-19" value="" style="endArrow=classic;html=1;rounded=0;exitX=0.41;exitY=0.887;exitDx=0;exitDy=0;exitPerimeter=0;" edge="1" parent="1" target="GONTffMYKAudjiqWZch5-12" source="GONTffMYKAudjiqWZch5-10">
          <mxGeometry width="50" height="50" relative="1" as="geometry">
            <mxPoint x="245" y="80" as="sourcePoint" />
            <mxPoint x="128.31" y="182" as="targetPoint" />
          </mxGeometry>
        </mxCell>
        <mxCell id="GONTffMYKAudjiqWZch5-20" value="" style="endArrow=classic;html=1;rounded=0;" edge="1" parent="1" target="GONTffMYKAudjiqWZch5-13" source="GONTffMYKAudjiqWZch5-2">
          <mxGeometry width="50" height="50" relative="1" as="geometry">
            <mxPoint x="266.31" y="81" as="sourcePoint" />
            <mxPoint x="128.31" y="182" as="targetPoint" />
            <Array as="points">
              <mxPoint x="270" y="203" />
            </Array>
          </mxGeometry>
        </mxCell>
        <mxCell id="GONTffMYKAudjiqWZch5-26" value="Private subnet" style="points=[[0,0],[0.25,0],[0.5,0],[0.75,0],[1,0],[1,0.25],[1,0.5],[1,0.75],[1,1],[0.75,1],[0.5,1],[0.25,1],[0,1],[0,0.75],[0,0.5],[0,0.25]];outlineConnect=0;gradientColor=none;html=1;whiteSpace=wrap;fontSize=12;fontStyle=0;container=1;pointerEvents=0;collapsible=0;recursiveResize=0;shape=mxgraph.aws4.group;grIcon=mxgraph.aws4.group_security_group;grStroke=0;strokeColor=#00A4A6;fillColor=#E6F6F7;verticalAlign=top;align=left;spacingLeft=30;fontColor=#147EBA;dashed=0;" vertex="1" parent="1">
          <mxGeometry x="-140" y="910" width="300" height="250" as="geometry" />
        </mxCell>
        <mxCell id="GONTffMYKAudjiqWZch5-27" value="1" style="text;html=1;align=center;verticalAlign=middle;resizable=0;points=[];autosize=1;strokeColor=none;fillColor=none;fontColor=#1DA3A5;" vertex="1" parent="GONTffMYKAudjiqWZch5-26">
          <mxGeometry x="102" y="-1" width="30" height="30" as="geometry" />
        </mxCell>
        <mxCell id="GONTffMYKAudjiqWZch5-32" value="Availability zone" style="sketch=0;outlineConnect=0;gradientColor=none;html=1;whiteSpace=wrap;fontSize=12;fontStyle=0;shape=mxgraph.aws4.group;grIcon=mxgraph.aws4.group_availability_zone;strokeColor=#545B64;fillColor=none;verticalAlign=top;align=left;spacingLeft=30;fontColor=#545B64;dashed=1;" vertex="1" parent="1">
          <mxGeometry x="-180" y="550" width="370" height="970" as="geometry" />
        </mxCell>
        <mxCell id="GONTffMYKAudjiqWZch5-12" value="" style="sketch=0;outlineConnect=0;fontColor=#232F3E;gradientColor=none;fillColor=#8C4FFF;strokeColor=none;dashed=0;verticalLabelPosition=bottom;verticalAlign=top;align=center;html=1;fontSize=12;fontStyle=0;aspect=fixed;pointerEvents=1;shape=mxgraph.aws4.internet_gateway;" vertex="1" parent="1">
          <mxGeometry x="240.00000000000006" y="340" width="48" height="48" as="geometry" />
        </mxCell>
        <mxCell id="GONTffMYKAudjiqWZch5-33" value="Availability zone" style="sketch=0;outlineConnect=0;gradientColor=none;html=1;whiteSpace=wrap;fontSize=12;fontStyle=0;shape=mxgraph.aws4.group;grIcon=mxgraph.aws4.group_availability_zone;strokeColor=#545B64;fillColor=none;verticalAlign=top;align=left;spacingLeft=30;fontColor=#545B64;dashed=1;" vertex="1" parent="1">
          <mxGeometry x="330" y="550" width="370" height="970" as="geometry" />
        </mxCell>
        <mxCell id="GONTffMYKAudjiqWZch5-21" value="Internet Gateway" style="text;html=1;align=center;verticalAlign=middle;resizable=0;points=[];autosize=1;strokeColor=none;fillColor=none;" vertex="1" parent="1">
          <mxGeometry x="213.79000000000005" y="388" width="110" height="30" as="geometry" />
        </mxCell>
        <mxCell id="GONTffMYKAudjiqWZch5-22" value="Public subnet" style="points=[[0,0],[0.25,0],[0.5,0],[0.75,0],[1,0],[1,0.25],[1,0.5],[1,0.75],[1,1],[0.75,1],[0.5,1],[0.25,1],[0,1],[0,0.75],[0,0.5],[0,0.25]];outlineConnect=0;gradientColor=none;html=1;whiteSpace=wrap;fontSize=12;fontStyle=0;container=1;pointerEvents=0;collapsible=0;recursiveResize=0;shape=mxgraph.aws4.group;grIcon=mxgraph.aws4.group_security_group;grStroke=0;strokeColor=#7AA116;fillColor=#F2F6E8;verticalAlign=top;align=left;spacingLeft=30;fontColor=#248814;dashed=0;" vertex="1" parent="1">
          <mxGeometry x="-150" y="580" width="310" height="260" as="geometry" />
        </mxCell>
        <mxCell id="GONTffMYKAudjiqWZch5-23" value="1" style="text;html=1;align=center;verticalAlign=middle;resizable=0;points=[];autosize=1;strokeColor=none;fillColor=none;fontColor=#7CA032;" vertex="1" parent="GONTffMYKAudjiqWZch5-22">
          <mxGeometry x="96" y="-2" width="30" height="30" as="geometry" />
        </mxCell>
        <mxCell id="GONTffMYKAudjiqWZch5-24" value="Public subnet" style="points=[[0,0],[0.25,0],[0.5,0],[0.75,0],[1,0],[1,0.25],[1,0.5],[1,0.75],[1,1],[0.75,1],[0.5,1],[0.25,1],[0,1],[0,0.75],[0,0.5],[0,0.25]];outlineConnect=0;gradientColor=none;html=1;whiteSpace=wrap;fontSize=12;fontStyle=0;container=1;pointerEvents=0;collapsible=0;recursiveResize=0;shape=mxgraph.aws4.group;grIcon=mxgraph.aws4.group_security_group;grStroke=0;strokeColor=#7AA116;fillColor=#F2F6E8;verticalAlign=top;align=left;spacingLeft=30;fontColor=#248814;dashed=0;" vertex="1" parent="1">
          <mxGeometry x="370" y="580" width="310" height="260" as="geometry" />
        </mxCell>
        <mxCell id="GONTffMYKAudjiqWZch5-25" value="2" style="text;html=1;align=center;verticalAlign=middle;resizable=0;points=[];autosize=1;strokeColor=none;fillColor=none;fontColor=#7CA032;" vertex="1" parent="GONTffMYKAudjiqWZch5-24">
          <mxGeometry x="96" y="-2" width="30" height="30" as="geometry" />
        </mxCell>
        <mxCell id="GONTffMYKAudjiqWZch5-28" value="Private subnet" style="points=[[0,0],[0.25,0],[0.5,0],[0.75,0],[1,0],[1,0.25],[1,0.5],[1,0.75],[1,1],[0.75,1],[0.5,1],[0.25,1],[0,1],[0,0.75],[0,0.5],[0,0.25]];outlineConnect=0;gradientColor=none;html=1;whiteSpace=wrap;fontSize=12;fontStyle=0;container=1;pointerEvents=0;collapsible=0;recursiveResize=0;shape=mxgraph.aws4.group;grIcon=mxgraph.aws4.group_security_group;grStroke=0;strokeColor=#00A4A6;fillColor=#E6F6F7;verticalAlign=top;align=left;spacingLeft=30;fontColor=#147EBA;dashed=0;" vertex="1" parent="1">
          <mxGeometry x="-140" y="1240" width="300" height="250" as="geometry" />
        </mxCell>
        <mxCell id="GONTffMYKAudjiqWZch5-29" value="2" style="text;html=1;align=center;verticalAlign=middle;resizable=0;points=[];autosize=1;strokeColor=none;fillColor=none;fontColor=#1DA3A5;" vertex="1" parent="GONTffMYKAudjiqWZch5-28">
          <mxGeometry x="102" y="-1" width="30" height="30" as="geometry" />
        </mxCell>
        <mxCell id="GONTffMYKAudjiqWZch5-30" value="Private subnet" style="points=[[0,0],[0.25,0],[0.5,0],[0.75,0],[1,0],[1,0.25],[1,0.5],[1,0.75],[1,1],[0.75,1],[0.5,1],[0.25,1],[0,1],[0,0.75],[0,0.5],[0,0.25]];outlineConnect=0;gradientColor=none;html=1;whiteSpace=wrap;fontSize=12;fontStyle=0;container=1;pointerEvents=0;collapsible=0;recursiveResize=0;shape=mxgraph.aws4.group;grIcon=mxgraph.aws4.group_security_group;grStroke=0;strokeColor=#00A4A6;fillColor=#E6F6F7;verticalAlign=top;align=left;spacingLeft=30;fontColor=#147EBA;dashed=0;" vertex="1" parent="1">
          <mxGeometry x="380" y="1240" width="300" height="250" as="geometry" />
        </mxCell>
        <mxCell id="GONTffMYKAudjiqWZch5-31" value="3" style="text;html=1;align=center;verticalAlign=middle;resizable=0;points=[];autosize=1;strokeColor=none;fillColor=none;fontColor=#1DA3A5;" vertex="1" parent="GONTffMYKAudjiqWZch5-30">
          <mxGeometry x="102" y="-1" width="30" height="30" as="geometry" />
        </mxCell>
        <mxCell id="GONTffMYKAudjiqWZch5-35" value="" style="endArrow=classic;html=1;rounded=0;exitX=0.51;exitY=0.897;exitDx=0;exitDy=0;exitPerimeter=0;" edge="1" parent="1" source="GONTffMYKAudjiqWZch5-17" target="GONTffMYKAudjiqWZch5-12">
          <mxGeometry width="50" height="50" relative="1" as="geometry">
            <mxPoint x="446.39" y="262" as="sourcePoint" />
            <mxPoint x="284.39" y="374" as="targetPoint" />
            <Array as="points">
              <mxPoint x="416" y="314" />
              <mxPoint x="291.39" y="314" />
            </Array>
          </mxGeometry>
        </mxCell>
        <mxCell id="GONTffMYKAudjiqWZch5-36" value="ap-southeast-2a" style="text;html=1;align=center;verticalAlign=middle;resizable=0;points=[];autosize=1;strokeColor=none;fillColor=none;fontColor=#545B63;" vertex="1" parent="1">
          <mxGeometry x="-69" y="548" width="110" height="30" as="geometry" />
        </mxCell>
        <mxCell id="GONTffMYKAudjiqWZch5-38" value="ap-southeast-2b" style="text;html=1;align=center;verticalAlign=middle;resizable=0;points=[];autosize=1;strokeColor=none;fillColor=none;fontColor=#545B63;" vertex="1" parent="1">
          <mxGeometry x="441.39" y="548" width="110" height="30" as="geometry" />
        </mxCell>
      </root>
    </mxGraphModel>
  </diagram>
</mxfile>
